<?xml version="1.0" encoding="UTF-8"?>
<svg version="1.1" xmlns="http://www.w3.org/2000/svg" width="992" height="276">
<path d="M0 0 C1.02630182 0.97298744 2.03842025 1.96300223 3 3 C7.58871771 1.18446386 9.25682634 -2.06640569 11.828125 -6.1015625 C15.09758718 -8.95940174 17.73241676 -8.13103648 22 -8 C22.11630362 5.56153012 22.20492265 19.12293986 22.25906086 32.68486881 C22.28505613 38.98353364 22.3202695 45.28185503 22.37719727 51.58032227 C22.43187684 57.66876497 22.4614961 63.75687916 22.47438622 69.84554863 C22.48356185 72.15817873 22.50147825 74.47079266 22.52865028 76.78328133 C22.76093405 97.38791077 20.29326969 112.24263959 5.6875 127.75 C-3.98343251 137.02820428 -16.98503209 143.17326798 -30.51953125 143.09765625 C-31.44096924 143.09515869 -32.36240723 143.09266113 -33.31176758 143.09008789 C-34.46700928 143.08098389 -35.62225098 143.07187988 -36.8125 143.0625 C-42.3503125 143.0315625 -42.3503125 143.0315625 -48 143 C-48 133.43 -48 123.86 -48 114 C-44.57625 113.938125 -41.1525 113.87625 -37.625 113.8125 C-27.88186119 113.47144742 -20.56380818 112.56380818 -13.4375 105.4375 C-12.1317683 103.22343321 -11.37478881 101.52982446 -11 99 C-11.86625 99.45375 -12.7325 99.9075 -13.625 100.375 C-26.84598735 105.89034203 -43.37701236 104.94021106 -56.5625 99.75 C-71.6196796 92.63735439 -81.31886108 82.27470377 -87.1875 66.625 C-92.18271322 50.48661883 -91.0401018 33.06079728 -83.9375 17.75 C-76.24404473 3.47597921 -64.42341244 -6.10451414 -49 -11 C-31.22314653 -15.68144896 -14.44959378 -10.62322051 0 0 Z M-55.8203125 27.125 C-60.5505283 34.64322379 -61.79272361 43.35362639 -60.375 52.0625 C-58.48783734 59.97120141 -55.0509599 66.17743025 -48.234375 70.77734375 C-41.37631881 74.53009128 -34.6321739 76.00482829 -27 74 C-18.02792787 70.903296 -12.10350007 64.36482706 -8 56 C-5.83050362 49.21486368 -5.87429622 40.7816409 -8.5625 34.1875 C-12.4381527 26.82781107 -17.53606019 21.27378162 -25.1953125 17.8515625 C-36.77568251 14.33551701 -48.41550578 17.41926464 -55.8203125 27.125 Z " fill="#ADFF2F" transform="translate(735,126)"/>
<path d="M0 0 C2.9375 2.375 2.9375 2.375 4.9375 4.375 C5.38738281 3.91609375 5.83726562 3.4571875 6.30078125 2.984375 C14.70320445 -5.03076216 23.30080996 -7.23641081 34.65991211 -7.09790039 C46.43860407 -6.61200466 56.5968138 -1.46410679 64.6875 7.0625 C71.29715744 15.04020282 74.10154652 23.90274535 74.05102539 34.08105469 C74.05117142 34.85217087 74.05131744 35.62328705 74.0514679 36.41777039 C74.05077249 38.9608341 74.04299749 41.50382412 74.03515625 44.046875 C74.03329075 45.81235718 74.03186747 47.57783987 74.03086853 49.34332275 C74.02705375 53.98591546 74.01723232 58.6284768 74.00616455 63.27105713 C73.9959281 68.01012752 73.99136612 72.74920299 73.98632812 77.48828125 C73.97560913 86.78386794 73.95854517 96.07943136 73.9375 105.375 C64.52536748 105.50373737 55.31662587 105.17322348 45.9375 104.375 C45.93163376 103.50105087 45.92576752 102.62710175 45.91972351 101.72666931 C45.86171482 93.47291436 45.78959131 85.21942766 45.70178509 76.9659338 C45.65714082 72.7231583 45.61787181 68.4804775 45.59106445 64.23754883 C45.56497187 60.13952272 45.52452793 56.04186221 45.47431374 51.94406319 C45.45768514 50.38409551 45.44614597 48.82406466 45.43988609 47.26402092 C45.4302009 45.07138004 45.40209143 42.87966605 45.36987305 40.68725586 C45.35876999 39.44149277 45.34766693 38.19572968 45.33622742 36.91221619 C44.78319458 32.00611589 43.56537184 27.85923609 39.8125 24.4375 C34.78837846 22.58075943 30.05769267 22.54535939 25.0625 24.5 C21.46741268 27.67213587 20.08470623 31.09947553 19.53877258 35.82992554 C19.52766953 37.09567413 19.51656647 38.36142273 19.50512695 39.66552734 C19.4949353 40.36866058 19.48474365 41.07179382 19.47424316 41.79623413 C19.44424805 44.10121772 19.43486832 46.40578484 19.42578125 48.7109375 C19.40892448 50.31663377 19.3907729 51.92231693 19.37138367 53.52798462 C19.32398559 57.73976543 19.29411054 61.95149305 19.26794434 66.16345215 C19.23808718 70.46714785 19.19157462 74.77066046 19.14648438 79.07421875 C19.06056715 87.50773752 18.99471127 95.94123759 18.9375 104.375 C9.3675 104.375 -0.2025 104.375 -10.0625 104.375 C-10.06660889 102.16474121 -10.07071777 99.95448242 -10.07495117 97.67724609 C-10.09216821 90.36486542 -10.13670235 83.05283349 -10.19459057 75.74066734 C-10.22884444 71.30832563 -10.25396801 66.87632799 -10.25805664 62.44384766 C-10.2623431 58.16413633 -10.29083386 53.88520099 -10.33593178 49.60573196 C-10.34889581 47.97516021 -10.35321831 46.34449553 -10.34865379 44.71387863 C-10.34373955 42.42477969 -10.36987111 40.13794161 -10.40307617 37.84912109 C-10.40973801 36.54784271 -10.41639984 35.24656433 -10.42326355 33.90585327 C-11.25910418 29.28904737 -12.782266 27.66993714 -16.0625 24.375 C-19.76471166 22.52389417 -24.02156917 22.91045205 -28.0625 23.375 C-31.69554576 25.49427669 -33.55606898 27.4923378 -35.0625 31.375 C-35.39084017 34.73150832 -35.39084017 34.73150832 -35.38134766 38.53027344 C-35.39139328 39.24286819 -35.4014389 39.95546295 -35.41178894 40.68965149 C-35.44260465 43.03788469 -35.45965135 45.38600395 -35.4765625 47.734375 C-35.49527547 49.36534606 -35.51484898 50.99630745 -35.5352478 52.6272583 C-35.58656147 56.91467589 -35.62619124 61.20212487 -35.66339111 65.48968506 C-35.70343558 69.86690022 -35.7545259 74.24398491 -35.8046875 78.62109375 C-35.9014378 87.2056466 -35.98482427 95.79025334 -36.0625 104.375 C-45.6325 104.375 -55.2025 104.375 -65.0625 104.375 C-65.0625 68.405 -65.0625 32.435 -65.0625 -4.625 C-57.0625 -4.625 -57.0625 -4.625 -54.96875 -3.3125 C-53.66666667 -1.75 -52.36458333 -0.1875 -51.0625 1.375 C-46.51154551 -0.40078079 -42.10765956 -2.43606966 -37.68359375 -4.50390625 C-25.58671894 -9.67797938 -10.62309529 -7.33603097 0 0 Z " fill="#32CD32" transform="translate(308.0625,122.625)"/>
<path d="M0 0 C9.57 0 19.14 0 29 0 C29 15.51 29 31.02 29 47 C31.64 45.68 34.28 44.36 37 43 C50.8989414 39.52526465 64.54366283 42.00730167 76.75 49.1875 C88.27949386 57.01760231 95.32915885 68.32800377 98 82 C98.16281811 84.50170931 98.2358782 87.01059163 98.22705078 89.51757812 C98.22734283 90.22100342 98.22763489 90.92442871 98.22793579 91.64916992 C98.22655732 93.94332805 98.21106727 96.23714956 98.1953125 98.53125 C98.19157708 100.13407209 98.18873261 101.73689648 98.18673706 103.33972168 C98.17914225 107.53514028 98.15952997 111.73041791 98.1373291 115.92578125 C98.11678069 120.21612644 98.1077162 124.50649466 98.09765625 128.796875 C98.07627968 137.19798821 98.04113194 145.59896026 98 154 C88.43 154 78.86 154 69 154 C68.9906543 151.94644287 68.98130859 149.89288574 68.97167969 147.77709961 C68.93784161 140.97563106 68.88225496 134.17446375 68.81609726 127.37323666 C68.77666659 123.2514943 68.74445671 119.12996417 68.72900391 115.00805664 C68.71380792 111.02665613 68.67931118 107.04583923 68.63169098 103.06469917 C68.61690731 101.54939421 68.60896072 100.03400591 68.60811615 98.51862907 C68.61815681 86.36374534 68.61815681 86.36374534 62.40234375 76.2578125 C56.22420814 71.4800543 50.6333273 71.14862763 43 72 C37.2981573 74.13015702 33.90209899 77.66013786 31 83 C29.87259289 86.38222132 29.84082309 89.01638703 29.79467773 92.58276367 C29.77982834 93.57828499 29.77982834 93.57828499 29.76467896 94.59391785 C29.7331191 96.78523199 29.70832845 98.97656781 29.68359375 101.16796875 C29.66301945 102.68826355 29.64202285 104.20855269 29.62062073 105.72883606 C29.56544916 109.72858087 29.51601825 113.72837689 29.46777344 117.72821045 C29.4175225 121.81038974 29.36185519 125.89249474 29.30664062 129.97460938 C29.19911916 137.98301179 29.09816145 145.99147738 29 154 C19.43 154 9.86 154 0 154 C0 103.18 0 52.36 0 0 Z " fill="#ADFF2F" transform="translate(778,74)"/>
<path d="M0 0 C10.89 0 21.78 0 33 0 C33 61.71 33 123.42 33 187 C46.86 187 60.72 187 75 187 C75 196.24 75 205.48 75 215 C50.25 215 25.5 215 0 215 C0 144.05 0 73.1 0 0 Z " fill="#ADFF2F" transform="translate(517,12)"/>
<path d="M0 0 C10.89 0 21.78 0 33 0 C33 61.71 33 123.42 33 187 C46.86 187 60.72 187 75 187 C75 196.24 75 205.48 75 215 C50.25 215 25.5 215 0 215 C0 144.05 0 73.1 0 0 Z " fill="#32CD32" transform="translate(108,12)"/>
<path d="M0 0 C0.96268799 0.00829834 1.92537598 0.01659668 2.91723633 0.02514648 C18.98677146 0.40489078 31.93168365 7.04894996 43.1875 18.4375 C46.20947351 21.75769458 46.20947351 21.75769458 46.125 24.37109375 C44.86531766 27.14764358 43.16016791 29.17458071 41.1875 31.5 C40.37023437 32.47324219 39.55296875 33.44648438 38.7109375 34.44921875 C37.87820313 35.43535156 37.04546875 36.42148438 36.1875 37.4375 C34.7261711 39.22672425 33.26778136 41.01835349 31.8125 42.8125 C28.01775482 47.45346014 24.15555288 52.03295555 20.27392578 56.60107422 C16.63992496 60.88450206 13.08102043 65.22531609 9.53515625 69.58203125 C5.14746366 74.91880877 0.66364988 80.17488641 -3.8125 85.4375 C-2.7862405 86.69738155 -2.7862405 86.69738155 -0.58984375 86.45703125 C8.3453011 85.8056383 14.07057986 84.07920486 20.125 77.3125 C21.72939288 75.37553366 23.06351582 73.68546837 24.1875 71.4375 C30.01901111 72.30377819 33.52360794 77.2612493 37.5 81.25 C38.34884766 82.07048828 39.19769531 82.89097656 40.07226562 83.73632812 C41.26819336 84.92838867 41.26819336 84.92838867 42.48828125 86.14453125 C43.22216064 86.8713208 43.95604004 87.59811035 44.7121582 88.34692383 C46.1875 90.4375 46.1875 90.4375 46.01000977 92.57373047 C41.65935434 102.43211679 30.77046069 108.55366944 21.375 112.75 C5.64416271 118.52461116 -10.74931634 117.10615981 -25.8125 110.3125 C-38.50996291 103.65480359 -48.07259071 91.84119953 -52.8125 78.4375 C-57.74893002 61.22938251 -56.89954373 44.52271885 -48.8125 28.4375 C-45.75101589 23.12018549 -42.38516363 18.56405011 -37.8125 14.4375 C-37.31234375 13.95667969 -36.8121875 13.47585937 -36.296875 12.98046875 C-26.25676737 3.71448157 -13.4546749 -0.15056337 0 0 Z M-17.5625 35.6875 C-23.71133392 43.20274145 -26.40749392 49.53220855 -26.8125 59.4375 C-26.43233964 63.1943788 -25.76398554 66.78525935 -24.8125 70.4375 C-21.44397797 69.31465932 -20.98164763 68.67443741 -18.984375 65.88671875 C-18.43861816 65.13438965 -17.89286133 64.38206055 -17.33056641 63.60693359 C-16.74710449 62.78789551 -16.16364258 61.96885742 -15.5625 61.125 C-14.31614057 59.40159376 -13.06870614 57.67896453 -11.8203125 55.95703125 C-10.84433105 54.60665771 -10.84433105 54.60665771 -9.84863281 53.22900391 C-5.7841498 47.65666593 -1.60468413 42.16955522 2.56347656 36.67456055 C3.16901367 35.87187744 3.77455078 35.06919434 4.3984375 34.2421875 C4.93774902 33.53046387 5.47706055 32.81874023 6.03271484 32.08544922 C7.2831449 30.63638864 7.2831449 30.63638864 7.1875 29.4375 C-2.62016483 28.89178758 -9.80893838 29.34367686 -17.5625 35.6875 Z " fill="#32CD32" transform="translate(450.8125,113.5625)"/>
<path d="M0 0 C9.57 0 19.14 0 29 0 C29 14.52 29 29.04 29 44 C42.86 44 56.72 44 71 44 C71 53.57 71 63.14 71 73 C57.14 73 43.28 73 29 73 C29.1546875 81.971875 29.1546875 81.971875 29.3125 91.125 C29.33739502 93.00203613 29.36229004 94.87907227 29.38793945 96.81298828 C29.4202514 98.31545453 29.45362823 99.81789842 29.48828125 101.3203125 C29.49452515 102.08851318 29.50076904 102.85671387 29.50720215 103.64819336 C29.65644164 109.26502509 30.78349561 113.48831948 34.61328125 117.828125 C35.17402344 118.29734375 35.73476563 118.7665625 36.3125 119.25 C36.86550781 119.72953125 37.41851563 120.2090625 37.98828125 120.703125 C42.37510512 123.53113573 46.91837482 124.25520747 52.0546875 124.4140625 C53.05483887 124.44967285 54.05499023 124.4852832 55.08544922 124.52197266 C56.33600098 124.55597168 57.58655273 124.5899707 58.875 124.625 C62.87625 124.74875 66.8775 124.8725 71 125 C71 134.57 71 144.14 71 154 C31.44330689 154.48835424 31.44330689 154.48835424 17 142 C16.33097656 141.44828125 15.66195312 140.8965625 14.97265625 140.328125 C6.58684314 132.79537925 0.70957301 121.07873219 -0.17312622 109.78491211 C-0.2293108 107.41644769 -0.22543537 105.0564209 -0.1953125 102.6875 C-0.1924826 101.83317383 -0.18965271 100.97884766 -0.18673706 100.09863281 C-0.17563879 97.39893947 -0.15055427 94.69959123 -0.125 92 C-0.11495679 90.15755691 -0.1058333 88.31510857 -0.09765625 86.47265625 C-0.0757335 81.98164006 -0.04127646 77.49087832 0 73 C-4.62 73 -9.24 73 -14 73 C-14 63.43 -14 53.86 -14 44 C-9.38 44 -4.76 44 0 44 C0 29.48 0 14.96 0 0 Z " fill="#ADFF2F" transform="translate(899,74)"/>
<path d="M0 0 C6.6710674 -0.07644383 13.34202063 -0.12876442 20.01342773 -0.16479492 C22.28007224 -0.17982508 24.54668794 -0.20025482 26.81323242 -0.22631836 C30.08259213 -0.26295588 33.35156527 -0.2797846 36.62109375 -0.29296875 C37.62458359 -0.30845261 38.62807343 -0.32393646 39.66197205 -0.33988953 C45.30806286 -0.34122176 49.81186083 0.26186304 55.04066467 2.45170593 C57.44802541 3.12537398 58.67083633 2.85904865 61 2 C61.99 1.34 62.98 0.68 64 0 C68.96861222 -0.73545723 72.96194685 -0.50048991 77.5 1.6875 C81.18396734 5.09516979 81.82832285 7.45490567 82.375 12.375 C82.01036307 15.89982369 81.68121307 16.74935304 79.8125 19.5 C79.214375 20.655 78.61625 21.81 78 23 C79.08547087 26.67165685 79.08547087 26.67165685 81 30 C83.61028452 40.40679223 81.88362967 50.1491875 78 60 C77.34 60.99 76.68 61.98 76 63 C75.90937245 65.08237248 75.90937245 65.08237248 77 67 C79.35631885 68.5503811 79.35631885 68.5503811 82.25 69.6875 C83.20390625 70.10386719 84.1578125 70.52023438 85.140625 70.94921875 C98.68283589 75.92579625 115.27371067 74.15214038 129.48776245 74.15821838 C131.7602367 74.16279068 134.03271012 74.16779167 136.30518258 74.17318195 C142.52161229 74.18669647 148.73803656 74.19416193 154.95447707 74.20060861 C160.97827508 74.20781603 167.00206296 74.21963239 173.0258535 74.23132664 C185.33975962 74.25507431 197.65366888 74.27430475 209.96758652 74.29092598 C222.15306909 74.30738874 234.33854583 74.32588053 246.52402115 74.34705925 C247.66215467 74.34903566 247.66215467 74.34903566 248.82328079 74.351052 C252.67690003 74.35775444 256.53051921 74.36449292 260.38413836 74.37124526 C287.65175714 74.41895905 314.91938139 74.46215816 342.18701172 74.50268555 C368.67073971 74.54205821 395.1544632 74.58348623 421.63818359 74.62768555 C422.8635355 74.62972934 422.8635355 74.62972934 424.113642 74.63181442 C432.31759054 74.64550026 440.52153902 74.65922775 448.72548744 74.67298577 C465.43663031 74.70100939 482.14777363 74.728755 498.85891724 74.7563324 C499.62720311 74.7576006 500.39548898 74.7588688 501.18705624 74.76017542 C552.45803017 74.84477586 603.72901434 74.92287602 655 75 C655 76.32 655 77.64 655 79 C601.09923977 79.06847639 547.19847559 79.13215848 493.29768372 79.16937256 C492.49988116 79.16992479 491.7020786 79.17047702 490.8801002 79.17104598 C473.54152446 79.18301773 456.20294826 79.19409844 438.86437137 79.20426132 C430.36148511 79.20925065 421.85859897 79.21443686 413.35571289 79.21972656 C412.50957543 79.2202496 411.66343798 79.22077263 410.79165999 79.22131152 C383.36800397 79.23835561 355.94438093 79.26839989 328.52074488 79.30518888 C300.33839744 79.34292701 272.15606825 79.36754358 243.97369597 79.37565996 C239.99274645 79.37681257 236.01179699 79.37811512 232.03084755 79.37950897 C230.85559055 79.37991351 230.85559055 79.37991351 229.65659098 79.38032622 C217.04648033 79.38505231 204.43642613 79.40360243 191.8263385 79.42732814 C179.14762857 79.45088772 166.46897458 79.45986926 153.79024353 79.45400551 C146.92114147 79.45123181 140.05219055 79.45488089 133.18311882 79.4768219 C126.89410126 79.49628105 120.60536076 79.49727374 114.31633047 79.48359558 C112.04158165 79.48190493 109.76681557 79.48698418 107.49210074 79.49953273 C85.61134574 79.61321682 85.61134574 79.61321682 77 75 C76.27768777 74.62131342 75.55537553 74.24262684 74.81117505 73.85246491 C73.17865888 72.95197246 71.58298303 71.98496722 70 71 C69.07767578 71.63228516 69.07767578 71.63228516 68.13671875 72.27734375 C67.32847656 72.82519531 66.52023438 73.37304688 65.6875 73.9375 C64.48673828 74.75541016 64.48673828 74.75541016 63.26171875 75.58984375 C58.17281821 78.76271611 52.81265673 78.46876264 47 78 C43.70299822 76.69493679 42.42537654 75.51338548 40.1875 72.8125 C38.61703012 69.09296606 38.39422649 65.98195117 39 62 C40.49717982 58.79175753 42.27518536 56.27067886 45 54 C50.03499461 52.32166846 54.67028999 52.08718965 59.671875 54.046875 C62.15931409 55.29795383 64.58134359 56.62149117 67 58 C68.3292324 58.67480623 69.66119777 59.34438518 71 60 C71.48108275 58.58398286 71.95978141 57.16715563 72.4375 55.75 C72.70433594 54.96109375 72.97117187 54.1721875 73.24609375 53.359375 C75.62410041 45.91732306 76.69250779 37.03629151 73.5 29.6875 C73.005 28.800625 72.51 27.91375 72 27 C71.46632813 27.4846875 70.93265625 27.969375 70.3828125 28.46875 C64.75119301 33.53525889 58.95631098 38.32183149 53 43 C51.9153099 43.85409723 50.8306774 44.7082676 49.74609375 45.5625 C46.77124742 47.90357655 43.79325047 50.240614 40.81445312 52.57666016 C37.874863 54.88260881 34.93755008 57.19145355 32 59.5 C31.43007324 59.94770752 30.86014648 60.39541504 30.27294922 60.85668945 C27.23034653 63.24681623 24.1887306 65.63818588 21.1484375 68.03125 C20.51679687 68.52818359 19.88515625 69.02511719 19.234375 69.53710938 C18.02835731 70.48596152 16.82261151 71.43515938 15.6171875 72.38476562 C14.08078495 73.5932332 12.54055113 74.7968255 11 76 C10.26523437 76.59425781 9.53046875 77.18851562 8.7734375 77.80078125 C6.43689835 79.38077579 4.75809021 79.22984085 2 79 C1.79288114 76.23045681 1.70203659 74.5083589 3.12646484 72.078125 C3.64934082 71.47484375 4.1722168 70.8715625 4.7109375 70.25 C5.29109619 69.56607178 5.87125488 68.88214355 6.46899414 68.17749023 C7.09797607 67.45891846 7.72695801 66.74034668 8.375 66 C9.67486544 64.47148628 10.97303256 62.94152672 12.26953125 61.41015625 C12.90971191 60.65879395 13.54989258 59.90743164 14.20947266 59.13330078 C16.58822915 56.29916195 18.82874842 53.38752895 21.0625 50.4375 C25.88874688 44.09261531 30.90632649 37.91556439 35.94921875 31.7421875 C39.09316355 27.89344842 42.18957375 24.00798346 45.28125 20.1171875 C46.95501358 18.05541509 48.6836514 16.05626185 50.4375 14.0625 C53.12775961 11.22716256 53.12775961 11.22716256 54 8 C42.84049881 5.5074185 31.62911245 5.55890485 20.25 5.375 C18.28123424 5.33674006 16.31248378 5.29768393 14.34375 5.2578125 C9.56262695 5.16269568 4.78142595 5.0783527 0 5 C0 3.35 0 1.7 0 0 Z M62.7421875 8.21875 C59.34678951 11.69027799 56.37095691 15.50512824 53.35400391 19.3046875 C51.35164199 21.81179192 49.31740117 24.2925566 47.28686523 26.77685547 C42.44057818 32.71314774 37.6301785 38.67795208 32.875 44.6875 C32.42592285 45.25122314 31.9768457 45.81494629 31.51416016 46.39575195 C29.08965194 49.47594771 26.93546085 52.59080588 25 56 C28.86223846 54.32198863 31.98683446 51.79665363 35.25 49.1875 C36.15830566 48.46759888 36.15830566 48.46759888 37.08496094 47.7331543 C43.18493945 42.88443349 49.22646854 37.96316053 55.265625 33.0390625 C59.818937 29.32818284 64.40352744 25.65728947 69 22 C68.505 20.515 68.505 20.515 68 19 C66.02 19.33 64.04 19.66 62 20 C62.30518654 16.43949035 63.00028808 14.99964963 65.3125 12.1875 C68 10 68 10 72 10 C71.67 11.65 71.34 13.3 71 15 C72.32 15.66 73.64 16.32 75 17 C76.43735246 14.12529507 76.38172649 12.18105412 76 9 C73.85329312 6.51591299 73.85329312 6.51591299 71 5 C66.76858 5 65.77845056 5.49970845 62.7421875 8.21875 Z M46 61 C44.8543631 64.70647232 44.44395543 66.82612813 46.125 70.375 C48.57717949 72.50022222 49.7341803 72.92742623 53 73 C58.67502751 71.69923304 62.22516396 69.36465417 66 65 C64.61133677 64.0106909 63.21370149 63.03396922 61.8125 62.0625 C61.03519531 61.51722656 60.25789063 60.97195312 59.45703125 60.41015625 C54.32458722 57.46450872 50.86123903 57.46455344 46 61 Z " fill="#000000" transform="translate(18,173)"/>
<path d="M0 0 C9.57 0 19.14 0 29 0 C29 36.3 29 72.6 29 110 C19.43 110 9.86 110 0 110 C0 73.7 0 37.4 0 0 Z " fill="#ADFF2F" transform="translate(602,118)"/>
<path d="M0 0 C9.57 0 19.14 0 29 0 C29 35.97 29 71.94 29 109 C19.43 109 9.86 109 0 109 C0 73.03 0 37.06 0 0 Z " fill="#32CD32" transform="translate(194,118)"/>
<path d="M0 0 C5.72972903 3.44545167 8.65544215 7.53130518 10.3515625 13.9765625 C11.02399264 19.45206507 10.09093812 24.20443466 7.3515625 28.9765625 C3.46152139 33.53002147 -0.67025629 36.04891369 -6.6484375 36.9765625 C-12.6935431 37.05185741 -17.97026827 35.94662175 -22.6484375 31.9765625 C-26.92128208 27.58472731 -28.00346289 23.41673705 -28.2109375 17.3515625 C-27.94704363 11.17501953 -26.67038669 7.85648796 -22.15234375 3.55078125 C-15.97014237 -1.92223992 -7.74563203 -2.99314984 0 0 Z " fill="#ADFF2F" transform="translate(625.6484375,71.0234375)"/>
<path d="M0 0 C5.72972903 3.44545167 8.65544215 7.53130518 10.3515625 13.9765625 C11.02399264 19.45206507 10.09093812 24.20443466 7.3515625 28.9765625 C3.46152139 33.53002147 -0.67025629 36.04891369 -6.6484375 36.9765625 C-12.6935431 37.05185741 -17.97026827 35.94662175 -22.6484375 31.9765625 C-26.92128208 27.58472731 -28.00346289 23.41673705 -28.2109375 17.3515625 C-27.94704363 11.17501953 -26.67038669 7.85648796 -22.15234375 3.55078125 C-15.97014237 -1.92223992 -7.74563203 -2.99314984 0 0 Z " fill="#32CD32" transform="translate(217.6484375,71.0234375)"/>
<path d="M0 0 C3.14101463 1.57050732 4.80286248 2.53469073 7.234375 4.8203125 C8.09482422 5.62275391 8.09482422 5.62275391 8.97265625 6.44140625 C9.55917969 6.99699219 10.14570312 7.55257812 10.75 8.125 C11.35199219 8.68832031 11.95398438 9.25164062 12.57421875 9.83203125 C14.05334151 11.21724146 15.52719641 12.6080729 17 14 C17.05389087 12.04196493 17.09274217 10.08351091 17.125 8.125 C17.14820313 7.03445312 17.17140625 5.94390625 17.1953125 4.8203125 C17.30060534 1.8628949 17.30060534 1.8628949 15 0 C18.96 0 22.92 0 27 0 C26.34 0.66 25.68 1.32 25 2 C24.62864085 4.52037964 24.62864085 4.52037964 24.5859375 7.4453125 C24.54726563 8.52167969 24.50859375 9.59804687 24.46875 10.70703125 C24.4378125 11.83496094 24.406875 12.96289062 24.375 14.125 C24.33632813 15.26066406 24.29765625 16.39632812 24.2578125 17.56640625 C24.16332399 20.37743956 24.07776459 23.18846233 24 26 C19.35561619 22.63339797 15.00538143 19.2555496 11 15.125 C10.236875 14.34382812 9.47375 13.56265625 8.6875 12.7578125 C8.130625 12.17773438 7.57375 11.59765625 7 11 C6.94610913 12.95803507 6.90725783 14.91648909 6.875 16.875 C6.84019531 18.51082031 6.84019531 18.51082031 6.8046875 20.1796875 C6.69939466 23.1371051 6.69939466 23.1371051 9 25 C5.37 25 1.74 25 -2 25 C-1.34 24.67 -0.68 24.34 0 24 C0 16.08 0 8.16 0 0 Z " fill="#000000" transform="translate(914,236)"/>
<path d="M0 0 C2.70894767 -0.08144943 5.41541263 -0.14070614 8.125 -0.1875 C8.88554688 -0.21263672 9.64609375 -0.23777344 10.4296875 -0.26367188 C16.19538265 -0.33822828 20.24953716 0.7237549 24.8125 4.5 C27.27670911 7.61268519 27.33477989 11.08421683 27.28515625 14.93359375 C26.81323556 18.35340256 25.20577598 20.4265947 23 23 C20.06195748 24.82294642 17.88609269 25.24170396 14.453125 25.1953125 C13.18662109 25.18564453 13.18662109 25.18564453 11.89453125 25.17578125 C11.02183594 25.15902344 10.14914062 25.14226562 9.25 25.125 C7.91775391 25.11146484 7.91775391 25.11146484 6.55859375 25.09765625 C4.37211942 25.07414577 2.18619906 25.04128499 0 25 C0.66 24.34 1.32 23.68 2 23 C2.31019696 20.80397205 2.31019696 20.80397205 2.265625 18.28125 C2.26820313 17.34925781 2.27078125 16.41726562 2.2734375 15.45703125 C2.26570312 14.48121094 2.25796875 13.50539062 2.25 12.5 C2.25773438 11.52417969 2.26546875 10.54835937 2.2734375 9.54296875 C2.26957031 8.14498047 2.26957031 8.14498047 2.265625 6.71875 C2.26336914 5.86216797 2.26111328 5.00558594 2.25878906 4.12304688 C2.19501572 1.78411453 2.19501572 1.78411453 0 0 Z M9 2 C9 8.93 9 15.86 9 23 C15.57004822 23.69615323 15.57004822 23.69615323 18.4375 21.1875 C20.74626248 16.47762454 20.76955957 12.14890889 20 7 C18.64237846 4.22435155 18.64237846 4.22435155 16 3 C13.69 2.67 11.38 2.34 9 2 Z " fill="#000000" transform="translate(756,236)"/>
<path d="M0 0 C1.70349609 0.00966797 1.70349609 0.00966797 3.44140625 0.01953125 C6.4375 0.1875 6.4375 0.1875 9.4375 1.1875 C9.4375 3.4975 9.4375 5.8075 9.4375 8.1875 C8.57125 7.3625 7.705 6.5375 6.8125 5.6875 C4.3654167 3.64537138 3.54361533 3.20206485 0.25 2.75 C-2.76156993 3.01672363 -2.76156993 3.01672363 -5.5625 5.1875 C-6.54021193 8.1206358 -6.69669011 10.06928994 -6.6875 13.125 C-6.69007813 13.97964844 -6.69265625 14.83429688 -6.6953125 15.71484375 C-6.57180254 18.01430852 -6.20670687 19.98390348 -5.5625 22.1875 C-1.32603233 23.1964034 -1.32603233 23.1964034 2.8125 22.25 C3.34875 21.899375 3.885 21.54875 4.4375 21.1875 C4.60431109 18.27097826 4.60431109 18.27097826 4.4375 15.1875 C3.7775 14.5275 3.1175 13.8675 2.4375 13.1875 C6.0675 13.1875 9.6975 13.1875 13.4375 13.1875 C12.4475 13.6825 12.4475 13.6825 11.4375 14.1875 C11.4375 16.8275 11.4375 19.4675 11.4375 22.1875 C5.8807678 25.49789365 1.92822981 26.92032433 -4.5625 26.1875 C-8.74155855 24.61049677 -11.27022617 23.04817171 -13.5625 19.1875 C-14.92661761 15.09514717 -15.40926331 11.36802522 -13.80859375 7.24609375 C-10.32234175 0.69740862 -7.12583066 -0.08917422 0 0 Z " fill="#000000" transform="translate(956.5625,235.8125)"/>
<path d="M0 0 C1.70349609 0.00966797 1.70349609 0.00966797 3.44140625 0.01953125 C6.4375 0.1875 6.4375 0.1875 9.4375 1.1875 C9.4375 3.4975 9.4375 5.8075 9.4375 8.1875 C8.57125 7.3625 7.705 6.5375 6.8125 5.6875 C4.3654167 3.64537138 3.54361533 3.20206485 0.25 2.75 C-2.76156993 3.01672363 -2.76156993 3.01672363 -5.5625 5.1875 C-6.54021193 8.1206358 -6.69669011 10.06928994 -6.6875 13.125 C-6.69007813 13.97964844 -6.69265625 14.83429688 -6.6953125 15.71484375 C-6.57180254 18.01430852 -6.20670687 19.98390348 -5.5625 22.1875 C-1.32603233 23.1964034 -1.32603233 23.1964034 2.8125 22.25 C3.34875 21.899375 3.885 21.54875 4.4375 21.1875 C4.60431109 18.27097826 4.60431109 18.27097826 4.4375 15.1875 C3.7775 14.5275 3.1175 13.8675 2.4375 13.1875 C6.0675 13.1875 9.6975 13.1875 13.4375 13.1875 C12.4475 13.6825 12.4475 13.6825 11.4375 14.1875 C11.4375 16.8275 11.4375 19.4675 11.4375 22.1875 C5.8807678 25.49789365 1.92822981 26.92032433 -4.5625 26.1875 C-8.74155855 24.61049677 -11.27022617 23.04817171 -13.5625 19.1875 C-14.92661761 15.09514717 -15.40926331 11.36802522 -13.80859375 7.24609375 C-10.32234175 0.69740862 -7.12583066 -0.08917422 0 0 Z " fill="#000000" transform="translate(811.5625,235.8125)"/>
<path d="M0 0 C6.6 0.33 13.2 0.66 20 1 C16.30810064 8.55960345 12.45309421 15.86241637 8 23 C12.02130715 23.27635161 12.02130715 23.27635161 16 23 C18.05270463 21.15811388 18.05270463 21.15811388 19 19 C19.66 19.33 20.32 19.66 21 20 C20.34 21.98 19.68 23.96 19 26 C12.4 26 5.8 26 -1 26 C2.8450735 18.2344594 6.68447009 10.51737467 11 3 C5.6092003 3.23004734 5.6092003 3.23004734 1 5.5625 C0.67 6.036875 0.34 6.51125 0 7 C0 4.69 0 2.38 0 0 Z " fill="#000000" transform="translate(877,235)"/>
<path d="M0 0 C7.59 0 15.18 0 23 0 C23 2.31 23 4.62 23 7 C22.608125 6.525625 22.21625 6.05125 21.8125 5.5625 C19.74741744 3.52332645 19.74741744 3.52332645 15 3 C15 10.26 15 17.52 15 25 C15.66 25.33 16.32 25.66 17 26 C13.37 26 9.74 26 6 26 C6.66 25.34 7.32 24.68 8 24 C8.37004294 21.77341846 8.37004294 21.77341846 8.4140625 19.2109375 C8.45273437 18.26992187 8.49140625 17.32890625 8.53125 16.359375 C8.5621875 15.37453125 8.593125 14.3896875 8.625 13.375 C8.68300781 11.88613281 8.68300781 11.88613281 8.7421875 10.3671875 C8.8366314 7.91164615 8.92219875 5.4561159 9 3 C4.03088634 4.12697043 4.03088634 4.12697043 0 7 C0 4.69 0 2.38 0 0 Z " fill="#000000" transform="translate(838,235)"/>
<path d="M0 0 C3.63 0 7.26 0 11 0 C10.67 0.66 10.34 1.32 10 2 C9.84777027 3.66565749 9.75082785 5.33656496 9.68359375 7.0078125 C9.64169922 7.99394531 9.59980469 8.98007813 9.55664062 9.99609375 C9.51732422 11.02863281 9.47800781 12.06117188 9.4375 13.125 C9.39431641 14.16527344 9.35113281 15.20554688 9.30664062 16.27734375 C9.2003712 18.85142528 9.09833417 21.42560508 9 24 C9.66 24.33 10.32 24.66 11 25 C7.37 25 3.74 25 0 25 C0.66 24.34 1.32 23.68 2 23 C2.31019696 20.80397205 2.31019696 20.80397205 2.265625 18.28125 C2.26820313 17.34925781 2.27078125 16.41726562 2.2734375 15.45703125 C2.26570312 14.48121094 2.25796875 13.50539062 2.25 12.5 C2.25773438 11.52417969 2.26546875 10.54835937 2.2734375 9.54296875 C2.26957031 8.14498047 2.26957031 8.14498047 2.265625 6.71875 C2.26336914 5.86216797 2.26111328 5.00558594 2.25878906 4.12304688 C2.19501572 1.78411453 2.19501572 1.78411453 0 0 Z " fill="#000000" transform="translate(899,236)"/>
<path d="M0 0 C3.63 0 7.26 0 11 0 C10.67 0.66 10.34 1.32 10 2 C9.84777027 3.66565749 9.75082785 5.33656496 9.68359375 7.0078125 C9.64169922 7.99394531 9.59980469 8.98007813 9.55664062 9.99609375 C9.51732422 11.02863281 9.47800781 12.06117188 9.4375 13.125 C9.39431641 14.16527344 9.35113281 15.20554688 9.30664062 16.27734375 C9.2003712 18.85142528 9.09833417 21.42560508 9 24 C9.66 24.33 10.32 24.66 11 25 C7.37 25 3.74 25 0 25 C0.66 24.34 1.32 23.68 2 23 C2.31019696 20.80397205 2.31019696 20.80397205 2.265625 18.28125 C2.26820313 17.34925781 2.27078125 16.41726562 2.2734375 15.45703125 C2.26570312 14.48121094 2.25796875 13.50539062 2.25 12.5 C2.25773438 11.52417969 2.26546875 10.54835937 2.2734375 9.54296875 C2.26957031 8.14498047 2.26957031 8.14498047 2.265625 6.71875 C2.26336914 5.86216797 2.26111328 5.00558594 2.25878906 4.12304688 C2.19501572 1.78411453 2.19501572 1.78411453 0 0 Z " fill="#000000" transform="translate(862,236)"/>
<path d="M0 0 C3.63 0 7.26 0 11 0 C10.67 0.66 10.34 1.32 10 2 C9.84777027 3.66565749 9.75082785 5.33656496 9.68359375 7.0078125 C9.64169922 7.99394531 9.59980469 8.98007813 9.55664062 9.99609375 C9.51732422 11.02863281 9.47800781 12.06117188 9.4375 13.125 C9.39431641 14.16527344 9.35113281 15.20554688 9.30664062 16.27734375 C9.2003712 18.85142528 9.09833417 21.42560508 9 24 C9.66 24.33 10.32 24.66 11 25 C7.37 25 3.74 25 0 25 C0.66 24.34 1.32 23.68 2 23 C2.31019696 20.80397205 2.31019696 20.80397205 2.265625 18.28125 C2.26820313 17.34925781 2.27078125 16.41726562 2.2734375 15.45703125 C2.26570312 14.48121094 2.25796875 13.50539062 2.25 12.5 C2.25773438 11.52417969 2.26546875 10.54835937 2.2734375 9.54296875 C2.26957031 8.14498047 2.26957031 8.14498047 2.265625 6.71875 C2.26336914 5.86216797 2.26111328 5.00558594 2.25878906 4.12304688 C2.19501572 1.78411453 2.19501572 1.78411453 0 0 Z " fill="#000000" transform="translate(825,236)"/>
<path d="M0 0 C3.63 0 7.26 0 11 0 C10.67 0.66 10.34 1.32 10 2 C9.84777027 3.66565749 9.75082785 5.33656496 9.68359375 7.0078125 C9.64169922 7.99394531 9.59980469 8.98007813 9.55664062 9.99609375 C9.51732422 11.02863281 9.47800781 12.06117188 9.4375 13.125 C9.39431641 14.16527344 9.35113281 15.20554688 9.30664062 16.27734375 C9.2003712 18.85142528 9.09833417 21.42560508 9 24 C9.66 24.33 10.32 24.66 11 25 C7.37 25 3.74 25 0 25 C0.66 24.34 1.32 23.68 2 23 C2.31019696 20.80397205 2.31019696 20.80397205 2.265625 18.28125 C2.26820313 17.34925781 2.27078125 16.41726562 2.2734375 15.45703125 C2.26570312 14.48121094 2.25796875 13.50539062 2.25 12.5 C2.25773438 11.52417969 2.26546875 10.54835937 2.2734375 9.54296875 C2.26957031 8.14498047 2.26957031 8.14498047 2.265625 6.71875 C2.26336914 5.86216797 2.26111328 5.00558594 2.25878906 4.12304688 C2.19501572 1.78411453 2.19501572 1.78411453 0 0 Z " fill="#000000" transform="translate(784,236)"/>
</svg>
