<?xml version="1.0" encoding="UTF-8"?>
<svg version="1.1" xmlns="http://www.w3.org/2000/svg" width="1044" height="304">
<path d="M0 0 C2.53263823 1.84079559 4.97514138 3.76885403 7.40234375 5.74609375 C10.79314794 2.48990746 10.79314794 2.48990746 13.75390625 -1.14453125 C14.21539063 -1.77875 14.676875 -2.41296875 15.15234375 -3.06640625 C15.5596875 -3.67097656 15.96703125 -4.27554688 16.38671875 -4.8984375 C18.85607076 -6.55902887 20.09065276 -6.39552027 23.02832031 -6.33862305 C23.84544495 -6.32639206 24.66256958 -6.31416107 25.50445557 -6.30155945 C26.44391022 -6.27797112 26.44391022 -6.27797112 27.40234375 -6.25390625 C27.44880414 7.3595141 27.48428243 20.97291541 27.50596809 34.58639908 C27.51637918 40.90853945 27.53048936 47.23062535 27.55322266 53.55273438 C27.57504661 59.66058636 27.58693248 65.76838612 27.59209824 71.87627411 C27.59577689 74.19971284 27.60296014 76.52314891 27.61380386 78.84656525 C27.6284458 82.11554511 27.63031641 85.38431263 27.62939453 88.65332031 C27.63658508 89.60135529 27.64377563 90.54939026 27.65118408 91.52615356 C27.59539469 109.95933529 21.83745876 124.80689193 9.33984375 138.37109375 C-3.74478306 150.96448884 -19.80820859 154.96488189 -37.53515625 154.80859375 C-40.85578125 154.78796875 -44.17640625 154.76734375 -47.59765625 154.74609375 C-47.59765625 144.51609375 -47.59765625 134.28609375 -47.59765625 123.74609375 C-37.09765625 123.43359375 -37.09765625 123.43359375 -33.83789062 123.3581543 C-24.61254319 123.00837406 -18.17437654 120.94819795 -11.296875 114.59765625 C-9.10959733 112.21427782 -7.76990302 109.74997611 -6.59765625 106.74609375 C-7.36335937 107.14441406 -7.36335937 107.14441406 -8.14453125 107.55078125 C-22.22052381 114.38911806 -38.06788365 114.15261747 -52.86328125 109.78125 C-69.05179618 104.08458065 -79.52658351 93.69414015 -87.0546875 78.56640625 C-90.83196678 69.77152915 -92.10548857 61.33282348 -91.97265625 51.80859375 C-91.96250488 50.75317383 -91.95235352 49.69775391 -91.94189453 48.61035156 C-91.5987961 31.41287523 -85.72012372 17.15491872 -73.59765625 4.74609375 C-52.03181889 -13.97624802 -23.60242743 -15.74707408 0 0 Z M-56.203125 31.57421875 C-61.65817601 40.07004049 -61.9334124 49.97467561 -60.59765625 59.74609375 C-58.20813756 67.78993139 -53.74228547 74.26267505 -46.59765625 78.74609375 C-39.4356471 82.34652511 -31.30823587 83.08918772 -23.59765625 80.80859375 C-15.16067349 77.14629292 -9.16036498 70.23521162 -5.4375 62.0078125 C-2.35635863 53.71022715 -2.92629207 45.76767814 -6.59765625 37.74609375 C-10.92627247 29.61476796 -16.49145848 24.04073866 -25.22265625 20.87109375 C-37.32444085 17.40755063 -48.09359763 22.54873925 -56.203125 31.57421875 Z " fill="#ADFF2F" transform="translate(777.59765625,134.25390625)"/>
<path d="M0 0 C0.70382812 0.61359375 1.40765625 1.2271875 2.1328125 1.859375 C3.76399444 3.45794662 3.76399444 3.45794662 5.875 3.25 C6.535 2.528125 7.195 1.80625 7.875 1.0625 C13.5638534 -4.88032007 21.49014114 -7.50508844 29.51171875 -7.953125 C43.19943809 -8.21926574 54.0694976 -5.66851349 64.625 3.6875 C65.3675 4.533125 66.11 5.37875 66.875 6.25 C67.36613281 6.76175781 67.85726562 7.27351562 68.36328125 7.80078125 C79.53169675 19.85601882 79.16764526 35.01645235 79.0703125 50.5078125 C79.06657594 52.264718 79.06373201 54.0216256 79.06173706 55.77853394 C79.05415122 60.37176405 79.0345469 64.9648649 79.0123291 69.55804443 C78.99176109 74.25742851 78.98271206 78.95683375 78.97265625 83.65625 C78.95129557 92.85423219 78.9161554 102.05208506 78.875 111.25 C68.645 111.25 58.415 111.25 47.875 111.25 C47.8656543 108.88827637 47.85630859 106.52655273 47.84667969 104.09326172 C47.81288212 96.28198643 47.75731774 88.47097455 47.69109726 80.6599102 C47.65162182 75.92495226 47.61943368 71.19018032 47.60400391 66.45507812 C47.58883773 61.88368638 47.554393 57.31280596 47.50669098 52.741642 C47.49187676 50.99942601 47.48395896 49.25713701 47.48311615 47.51485825 C47.4807448 45.07038895 47.45365361 42.62733081 47.42089844 40.18310547 C47.4259288 39.46596878 47.43095917 38.74883209 47.43614197 38.00996399 C47.33228141 32.98620299 46.05136568 30.10720734 42.875 26.25 C38.65489861 23.60209325 35.90204687 22.97468262 31.125 24 C28.67276987 24.66879004 26.28744793 25.44585069 23.875 26.25 C22.70546584 28.67383077 22.70546584 28.67383077 21.875 31.25 C21.38 32.24 21.38 32.24 20.875 33.25 C20.75296382 35.69022934 20.68939143 38.10386176 20.66967773 40.54541016 C20.65977814 41.29672714 20.64987854 42.04804413 20.63967896 42.8221283 C20.60803477 45.31107406 20.58329505 47.80003893 20.55859375 50.2890625 C20.53802674 52.01256818 20.51703033 53.73606879 20.49562073 55.45956421 C20.44037393 60.0002024 20.39097617 64.5408863 20.34277344 69.081604 C20.29257744 73.71329832 20.23688146 78.34492609 20.18164062 82.9765625 C20.07402714 92.06765364 19.97309739 101.15880119 19.875 110.25 C9.975 110.25 0.075 110.25 -10.125 110.25 C-10.13958252 108.05021484 -10.15416504 105.85042969 -10.16918945 103.58398438 C-10.21964754 96.2956139 -10.28626215 89.00745455 -10.36071491 81.71929169 C-10.40534022 77.30278874 -10.44461337 72.88637636 -10.47143555 68.46972656 C-10.49754708 64.20312398 -10.5380043 59.93687142 -10.58818626 55.67048645 C-10.6048021 54.04714835 -10.61634916 52.42374979 -10.62261391 50.80033875 C-10.28781454 37.34010726 -10.28781454 37.34010726 -16.375 25.8125 C-19.81169338 23.85983331 -22.16608532 23.31825715 -26.125 23.25 C-31.31783668 24.83425526 -34.16328594 26.69351683 -37.125 31.25 C-38.29160365 34.74981095 -38.30036376 37.92415346 -38.33032227 41.56713867 C-38.34517166 42.67970284 -38.34517166 42.67970284 -38.36032104 43.81474304 C-38.39190257 46.26578583 -38.41668021 48.716848 -38.44140625 51.16796875 C-38.46197867 52.86762495 -38.48297522 54.56727607 -38.50437927 56.266922 C-38.5595702 60.74014163 -38.60899262 65.21340721 -38.65722656 69.68670654 C-38.70746332 74.25146574 -38.76313804 78.81615823 -38.81835938 83.38085938 C-38.92590454 92.33718471 -39.02685509 101.29356672 -39.125 110.25 C-49.025 110.25 -58.925 110.25 -69.125 110.25 C-69.125 71.97 -69.125 33.69 -69.125 -5.75 C-61.125 -5.75 -61.125 -5.75 -58.8125 -4.21875 C-58.255625 -3.5690625 -57.69875 -2.919375 -57.125 -2.25 C-56.5475 -1.6003125 -55.97 -0.950625 -55.375 -0.28125 C-54.75625 0.47671875 -54.75625 0.47671875 -54.125 1.25 C-53.2071875 0.76789063 -52.289375 0.28578125 -51.34375 -0.2109375 C-34.69584856 -8.84276193 -16.05949859 -12.60721784 0 0 Z " fill="#32CD32" transform="translate(327.125,133.75)"/>
<path d="M0 0 C9.9 0 19.8 0 30 0 C30.33 16.17 30.66 32.34 31 49 C36.94 46.525 36.94 46.525 43 44 C46.4033634 43.56374084 49.14957243 43.31864256 52.5 43.4375 C53.7219104 43.46239502 53.7219104 43.46239502 54.96850586 43.48779297 C66.01963276 43.91026845 74.96000886 47.77315296 84 54 C84.61359375 54.40476563 85.2271875 54.80953125 85.859375 55.2265625 C94.18805624 61.45397095 100.76309715 72.95390954 103 83 C103.17168198 83.71181931 103.34336395 84.42363861 103.52024841 85.1570282 C104.10194569 88.6041225 104.1318528 91.96903061 104.11352539 95.45239258 C104.11367142 96.1846405 104.11381744 96.91688843 104.1139679 97.67132568 C104.11327413 100.07909155 104.10550692 102.48677898 104.09765625 104.89453125 C104.09579017 106.56890318 104.09436716 108.24327565 104.09336853 109.91764832 C104.08955835 114.31527221 104.0797409 118.71286284 104.06866455 123.11047363 C104.05841816 127.60163931 104.053864 132.09281037 104.04882812 136.58398438 C104.03811725 145.38933984 104.02053263 154.19466195 104 163 C93.77 163 83.54 163 73 163 C72.9906543 160.83050781 72.98130859 158.66101563 72.97167969 156.42578125 C72.93782877 149.23716426 72.88223498 142.04883189 72.81609726 134.86044312 C72.77668095 130.50444081 72.74446398 126.14863889 72.72900391 121.79248047 C72.71379853 117.58415607 72.67928498 113.37638276 72.63169098 109.16830444 C72.61691699 107.56729945 72.60896128 105.96621576 72.60811615 104.36514282 C72.75776536 91.0441168 72.75776536 91.0441168 65.95703125 79.94140625 C59.9143021 76.05600845 54.84801299 74.07542041 47.64453125 75.44921875 C41.8985362 77.11430609 37.02061399 79.55688924 33.88397217 84.90170288 C30.32387804 92.85099378 30.39536531 100.74852381 30.390625 109.2890625 C30.37561732 110.84420471 30.35888481 112.39933113 30.34051514 113.95443726 C30.29711911 118.01496172 30.2769048 122.0752713 30.26177979 126.13598633 C30.238639 131.02552563 30.18624196 135.91483124 30.13883972 140.80418396 C30.07033971 148.20284973 30.03863787 155.60084698 30 163 C20.1 163 10.2 163 0 163 C0 109.21 0 55.42 0 0 Z " fill="#ADFF2F" transform="translate(826,82)"/>
<path d="M0 0 C11.55 0 23.1 0 35 0 C35 65.67 35 131.34 35 199 C49.52 199 64.04 199 79 199 C79 208.9 79 218.8 79 229 C52.93 229 26.86 229 0 229 C0 153.43 0 77.86 0 0 Z " fill="#ADFF2F" transform="translate(548,15)"/>
<path d="M0 0 C11.55 0 23.1 0 35 0 C35 65.67 35 131.34 35 199 C49.52 199 64.04 199 79 199 C79 208.9 79 218.8 79 229 C52.93 229 26.86 229 0 229 C0 153.43 0 77.86 0 0 Z " fill="#32CD32" transform="translate(115,15)"/>
<path d="M0 0 C1.38638672 0.60134766 1.38638672 0.60134766 2.80078125 1.21484375 C8.38095518 3.93784234 12.97284366 7.43671027 17.5625 11.5625 C18.07562744 12.02148682 18.58875488 12.48047363 19.11743164 12.95336914 C22.06792807 15.72887403 23.81379095 18.11849938 25 22 C23.96552734 23.21623047 23.96552734 23.21623047 22.91015625 24.45703125 C16.86370981 31.57724691 10.89226756 38.75123919 5 46 C0.220277 51.88009088 -4.59498398 57.72419057 -9.5 63.5 C-19.6635555 75.42705193 -19.6635555 75.42705193 -29 88 C-16.95337657 86.71412447 -9.2916603 85.40919771 -1.4453125 75.90234375 C-0.23702328 74.31197388 0.89209287 72.66186069 2 71 C5.56764285 72.51376081 7.83706287 74.60513129 10.546875 77.3515625 C11.39121094 78.20234375 12.23554687 79.053125 13.10546875 79.9296875 C14.41451172 81.26386719 14.41451172 81.26386719 15.75 82.625 C16.63816406 83.5221875 17.52632812 84.419375 18.44140625 85.34375 C20.63216969 87.55807004 22.81812763 89.77692435 25 92 C20.96997841 102.70761571 10.35563792 109.66599981 0.2421875 114.25 C-15.61294195 120.39329802 -31.68008266 120.62491015 -47.65234375 114.62890625 C-64.56302423 106.83691315 -74.62914449 94.26449135 -81.0546875 76.9453125 C-83.15590313 70.39854976 -83.21659149 64.19868854 -83.25 57.375 C-83.270625 56.34503906 -83.29125 55.31507813 -83.3125 54.25390625 C-83.39238204 38.37735179 -77.40119816 23.59029237 -66.30859375 12.1796875 C-59.18528451 5.45412649 -52.29237835 1.23898827 -43 -2 C-41.95328125 -2.36738281 -40.9065625 -2.73476562 -39.828125 -3.11328125 C-27.09970509 -6.06159892 -11.95088901 -5.37705726 0 0 Z M-46 36 C-50.9581709 43.01717266 -52.18023916 48.93505085 -52.1875 57.4375 C-52.19974609 58.18837891 -52.21199219 58.93925781 -52.22460938 59.71289062 C-52.2357534 63.93647648 -51.9399833 67.14303716 -50 71 C-45.88459996 67.24683566 -42.81104559 62.80237071 -39.5625 58.3125 C-34.18204781 50.93043397 -28.70800066 43.63457871 -23.08813477 36.43286133 C-22.57951904 35.77568115 -22.07090332 35.11850098 -21.546875 34.44140625 C-21.10182617 33.87107666 -20.65677734 33.30074707 -20.19824219 32.71313477 C-18.91924979 30.8845509 -17.94985863 29.01638108 -17 27 C-27.61906557 23.46031148 -38.55224786 28.34659001 -46 36 Z " fill="#32CD32" transform="translate(503,128)"/>
<path d="M0 0 C9.9 0 19.8 0 30 0 C30 15.18 30 30.36 30 46 C44.85 46 59.7 46 75 46 C75 56.23 75 66.46 75 77 C60.15 77 45.3 77 30 77 C30.0825 82.73375 30.165 88.4675 30.25 94.375 C30.27368652 97.05761963 30.27368652 97.05761963 30.29785156 99.79443359 C30.40799978 113.32636362 30.40799978 113.32636362 36.74902344 124.91943359 C41.83276549 129.67827484 46.66878793 131.22380241 53.61328125 131.4140625 C54.73774658 131.44967285 55.86221191 131.4852832 57.02075195 131.52197266 C59.14516724 131.57297119 59.14516724 131.57297119 61.3125 131.625 C68.0878125 131.810625 68.0878125 131.810625 75 132 C75 142.23 75 152.46 75 163 C30.74684951 163.52370592 30.74684951 163.52370592 14.66796875 147.90625 C4.32714731 136.08816835 -0.38484304 123.7658696 -0.1953125 108.15234375 C-0.1924826 107.25504044 -0.18965271 106.35773712 -0.18673706 105.4332428 C-0.17564979 102.60118586 -0.15056747 99.76945939 -0.125 96.9375 C-0.11495537 95.00325981 -0.10583213 93.06901461 -0.09765625 91.13476562 C-0.07574814 86.4230521 -0.04129901 81.71158184 0 77 C-4.62 77 -9.24 77 -14 77 C-14 66.77 -14 56.54 -14 46 C-9.38 46 -4.76 46 0 46 C0 30.82 0 15.64 0 0 Z " fill="#ADFF2F" transform="translate(955,82)"/>
<path d="M0 0 C7.04332967 -0.10217798 14.08646525 -0.17178927 21.13037109 -0.21972656 C23.52204532 -0.23972977 25.91367133 -0.26694124 28.30517578 -0.30175781 C31.76086386 -0.35077466 35.21590033 -0.37308262 38.671875 -0.390625 C39.72550232 -0.41127014 40.77912964 -0.43191528 41.86468506 -0.45318604 C48.7317422 -0.45521975 54.17164844 0.76213832 60.5581665 3.30963135 C61.36397156 3.537453 62.16977661 3.76527466 63 4 C65.639038 2.2889924 65.639038 2.2889924 68 0 C72.88226258 -0.73792976 77.39681133 -0.63459552 82 1.1875 C85.10259599 3.99922762 86.77253179 6.10858623 87.28515625 10.37109375 C87.46621766 15.66910804 86.875694 18.49891375 84 23 C84.20351002 26.18832361 84.88734139 28.70571686 86.02734375 31.68359375 C87.15808174 35.53900161 87.38355187 39.14072722 87.375 43.125 C87.37367065 44.24116699 87.37367065 44.24116699 87.37231445 45.37988281 C87.18597233 54.16917706 84.66264529 61.57183156 80 69 C94.41584613 82.45478972 120.09629106 79.29588737 138.34184265 79.2784729 C140.7547516 79.28348547 143.16765888 79.28936406 145.58056384 79.29602563 C150.79372088 79.30845981 156.00684812 79.31487707 161.22001839 79.31578636 C168.97160125 79.31717206 176.72313679 79.33001313 184.47470366 79.3450741 C197.51903153 79.37010053 210.56335534 79.3860263 223.60770226 79.39665604 C236.51194819 79.40720174 249.41617882 79.42185943 262.32041359 79.44193649 C263.12457502 79.44318536 263.92873644 79.44443423 264.7572664 79.44572094 C268.84166237 79.45208522 272.92605822 79.45852227 277.01045404 79.46498732 C305.89473807 79.51057661 334.77902708 79.5470556 363.66333008 79.578125 C391.71346769 79.60831811 419.76359521 79.64267014 447.8137207 79.68261719 C448.67926819 79.68384819 449.54481568 79.68507919 450.43659188 79.6863475 C459.12925457 79.698715 467.82191714 79.71116667 476.51457962 79.72367998 C494.22047854 79.74916618 511.92637824 79.7740908 529.63227844 79.79867554 C530.446259 79.79980645 531.26023955 79.80093736 532.09888619 79.80210253 C586.39924575 79.87748074 640.69962182 79.93972981 695 80 C695 81.32 695 82.64 695 84 C637.85778413 84.06847402 580.71556423 84.13215642 523.57331848 84.16937256 C522.30471803 84.1702009 522.30471803 84.1702009 521.01048928 84.17104598 C502.63038476 84.18301763 484.25027979 84.19409836 465.87017418 84.20426132 C456.85656459 84.20925066 447.84295512 84.21443688 438.8293457 84.21972656 C437.93238359 84.2202496 437.03542149 84.22077263 436.11127871 84.22131152 C407.03856217 84.23835667 377.96587673 84.26840173 348.89317904 84.30518888 C319.01701095 84.34292404 289.14086007 84.36754289 259.26466856 84.37565996 C255.04479092 84.37681258 250.82491334 84.37811513 246.60503578 84.37950897 C245.774504 84.37977866 244.94397221 84.38004836 244.08827279 84.38032622 C230.71941983 84.38505295 217.35062008 84.40360479 203.98178881 84.42732814 C190.54133847 84.45088348 177.10094089 84.45987032 163.66047063 84.45400551 C155.67539065 84.4509634 147.69050377 84.45907219 139.70545866 84.48319017 C133.74178835 84.49997192 127.77832502 84.49583651 121.81463567 84.48359558 C119.40260679 84.48190412 116.99056165 84.48699037 114.57856479 84.49953273 C111.29857966 84.51559722 108.01953677 84.50692582 104.73956585 84.49219131 C103.80425139 84.50269937 102.86893693 84.51320742 101.90527961 84.5240339 C91.76251323 84.42115117 83.23540914 80.75770725 75 75 C74.49210937 75.40992188 73.98421875 75.81984375 73.4609375 76.2421875 C66.2416858 81.89321224 60.22132411 83.98855066 51 83 C46.84764464 81.2848967 44.20326342 78.91691274 42 75 C41.26893873 70.5662488 40.96152598 66.15355678 42.953125 62.0234375 C45.45137239 58.81366396 48.07693298 56.93406358 52 56 C59.51842151 55.11547982 66.10137255 57.91298824 72.125 62.25 C72.74375 62.8275 73.3625 63.405 74 64 C79.67639645 56.98798086 80.33211638 49.04993199 80.3984375 40.2734375 C79.89487994 36.13636655 78.57958947 32.85286109 77 29 C76.00742188 29.81082031 75.01484375 30.62164062 73.9921875 31.45703125 C65.63188281 38.27504319 57.22011291 45.0173505 48.71777344 51.65722656 C46.39319409 53.47433662 44.07341379 55.29751656 41.75390625 57.12109375 C40.00574848 58.4954806 38.25678286 59.86883494 36.5078125 61.2421875 C34.14556914 63.09795322 31.78655786 64.95772844 29.4296875 66.8203125 C26.52599673 69.11424808 23.61292512 71.39581876 20.69482422 73.67138672 C18.99809988 75.00148955 17.31359733 76.34611279 15.62890625 77.69140625 C14.56564042 78.52412268 13.50186226 79.35618547 12.4375 80.1875 C11.50808594 80.92355469 10.57867187 81.65960938 9.62109375 82.41796875 C6.76273658 84.14320668 5.27359955 84.3611023 2 84 C1.79288114 81.23045681 1.70203659 79.5083589 3.12646484 77.078125 C3.64934082 76.47484375 4.1722168 75.8715625 4.7109375 75.25 C5.29109619 74.56607178 5.87125488 73.88214355 6.46899414 73.17749023 C7.09797607 72.45891846 7.72695801 71.74034668 8.375 71 C9.67486544 69.47148628 10.97303256 67.94152672 12.26953125 66.41015625 C12.90971191 65.65879395 13.54989258 64.90743164 14.20947266 64.13330078 C16.58822915 61.29916195 18.82874842 58.38752895 21.0625 55.4375 C26.39806692 48.42303147 31.97123129 41.61106419 37.54589844 34.78613281 C40.0825386 31.67027327 42.58254009 28.5253752 45.0859375 25.3828125 C48.06280714 21.67691356 51.0902336 18.01269625 54.1171875 14.34765625 C56.09774658 11.94854152 56.09774658 11.94854152 58 9 C48.83759228 6.45488674 39.74950258 5.87594321 30.2734375 5.68359375 C29.39974518 5.66281265 28.52605286 5.64203156 27.62588501 5.62062073 C24.87565835 5.55601374 22.12534865 5.49666027 19.375 5.4375 C17.49348151 5.39422994 15.61197096 5.35061318 13.73046875 5.30664062 C9.15372768 5.20042564 4.57690438 5.09891711 0 5 C0 3.35 0 1.7 0 0 Z M68 8 C61.86750696 13.91272793 56.60092098 20.65161638 51.39477539 27.37524414 C47.62259399 32.24174663 43.73805833 37.00657341 39.8125 41.75 C34.81660338 47.78857155 29.86290648 53.85340703 25 60 C28.405574 60 28.80467302 59.63793578 31.30078125 57.54296875 C32.26141479 56.74777832 32.26141479 56.74777832 33.24145508 55.93652344 C34.26662231 55.07075684 34.26662231 55.07075684 35.3125 54.1875 C36.75957722 52.98726844 38.20750952 51.78806714 39.65625 50.58984375 C40.38457031 49.9851123 41.11289062 49.38038086 41.86328125 48.75732422 C44.97146659 46.20102645 48.13726833 43.72214465 51.3125 41.25 C63.0908436 32.12367596 63.0908436 32.12367596 74 22 C71.21885944 19.66608797 71.21885944 19.66608797 68.3125 20.375 C67.549375 20.58125 66.78625 20.7875 66 21 C66.30441479 17.44849408 66.97593993 16.02861198 69.3125 13.25 C71.74479578 11.21365935 72.92000563 10.3422216 76 10 C76 11.98 76 13.96 76 16 C77.32 16.66 78.64 17.32 80 18 C81.42041821 15.15916359 81.31452272 13.14522722 81 10 C79.20412315 7.62687702 77.73136969 6.35388856 75.0625 5.0625 C72.00789858 4.96993632 70.50880872 6.2979888 68 8 Z M49 65 C47.63002255 66.15745487 47.63002255 66.15745487 47.6875 69.3125 C47.71702412 72.95001562 47.71702412 72.95001562 49.5 75.4375 C52.97634262 77.61021414 56.06395089 77.63827823 60 77 C63.76416263 75.4798574 66.84849509 73.54544627 70 71 C68.54322426 67.16982558 66.76882213 66.00162963 63.125 64.25 C62.26132813 63.82203125 61.39765625 63.3940625 60.5078125 62.953125 C55.65805792 61.10991609 53.06939815 62.25040665 49 65 Z " fill="#000000" transform="translate(5,187)"/>
<path d="M0 0 C9.9 0 19.8 0 30 0 C30 38.61 30 77.22 30 117 C20.1 117 10.2 117 0 117 C0 78.39 0 39.78 0 0 Z " fill="#ADFF2F" transform="translate(640,128)"/>
<path d="M0 0 C9.9 0 19.8 0 30 0 C30 38.28 30 76.56 30 116 C20.1 116 10.2 116 0 116 C0 77.72 0 39.44 0 0 Z " fill="#32CD32" transform="translate(206,128)"/>
<path d="M0 0 C4.07733699 3.00343453 7.21919777 6.52868707 8.82421875 11.34375 C9.49464141 18.3448781 9.88957102 24.87359237 5.4921875 30.6875 C0.76741974 35.37907267 -4.07055027 37.61956531 -10.73828125 37.90625 C-16.6929785 37.59810483 -21.31404367 36.00837811 -25.70703125 31.91796875 C-30.44628994 26.58630272 -31.65415298 21.87286247 -31.48828125 14.90625 C-30.8139485 9.37672146 -28.3849171 5.14393371 -24.23828125 1.46875 C-16.68219277 -3.77425017 -8.17712173 -4.64420707 0 0 Z " fill="#ADFF2F" transform="translate(666.17578125,79.65625)"/>
<path d="M0 0 C4.07733699 3.00343453 7.21919777 6.52868707 8.82421875 11.34375 C9.49464141 18.3448781 9.88957102 24.87359237 5.4921875 30.6875 C0.76741974 35.37907267 -4.07055027 37.61956531 -10.73828125 37.90625 C-16.6929785 37.59810483 -21.31404367 36.00837811 -25.70703125 31.91796875 C-30.44628994 26.58630272 -31.65415298 21.87286247 -31.48828125 14.90625 C-30.8139485 9.37672146 -28.3849171 5.14393371 -24.23828125 1.46875 C-16.68219277 -3.77425017 -8.17712173 -4.64420707 0 0 Z " fill="#32CD32" transform="translate(232.17578125,79.65625)"/>
</svg>
